<svg xmlns="http://www.w3.org/2000/svg" xmlns:xlink="http://www.w3.org/1999/xlink" width="500" zoomAndPan="magnify" viewBox="0 0 375 374.999991" height="500" preserveAspectRatio="xMidYMid meet" version="1.2"><defs><clipPath id="64b596812d"><path d="M 10 66 L 364.714844 66 L 364.714844 308.886719 L 10 308.886719 Z M 10 66 "/></clipPath></defs><g id="6eb066dbae"><path style=" stroke:none;fill-rule:nonzero;fill:#7e28c1;fill-opacity:1;" d="M 358.546875 122.648438 C 358.144531 124.304688 357.449219 125.96875 356.535156 127.460938 C 349.40625 139.101562 342.507812 151.164062 335.835938 162.828125 C 332.445312 168.761719 328.945312 174.878906 325.453125 180.878906 C 318.253906 193.242188 311.03125 205.777344 304.042969 217.902344 L 304.003906 217.976562 C 300.855469 223.441406 297.703125 228.910156 294.550781 234.371094 C 294.550781 234.371094 270.5625 275.914062 263.597656 287.984375 C 263.050781 288.929688 262.511719 289.882812 261.976562 290.835938 C 260.878906 292.78125 259.773438 294.742188 258.589844 296.660156 C 256.445312 300.132812 253.402344 302.429688 249.789062 303.292969 C 248.898438 303.503906 248.011719 303.613281 247.15625 303.613281 C 244.277344 303.613281 241.75 302.433594 239.839844 300.207031 C 239.4375 299.730469 239.0625 299.230469 238.632812 298.574219 C 238.605469 298.53125 238.574219 298.484375 238.542969 298.441406 C 238.425781 298.269531 238.308594 298.105469 238.203125 297.9375 C 238.171875 297.894531 238.144531 297.851562 238.113281 297.804688 C 237.992188 297.632812 237.878906 297.46875 237.769531 297.304688 C 237.742188 297.257812 237.710938 297.210938 237.679688 297.167969 C 237.558594 296.992188 237.441406 296.824219 237.332031 296.65625 C 237.304688 296.617188 237.277344 296.574219 237.25 296.535156 C 237.128906 296.359375 237.011719 296.195312 236.902344 296.027344 C 236.875 295.984375 236.847656 295.941406 236.816406 295.898438 C 236.695312 295.726562 236.578125 295.558594 236.46875 295.390625 C 236.441406 295.347656 236.414062 295.304688 236.382812 295.261719 C 236.261719 295.089844 236.144531 294.921875 236.039062 294.753906 C 236.007812 294.707031 235.976562 294.660156 235.941406 294.613281 C 235.824219 294.441406 235.710938 294.277344 235.601562 294.113281 C 235.574219 294.066406 235.542969 294.023438 235.511719 293.980469 C 235.390625 293.808594 235.277344 293.640625 235.167969 293.472656 C 235.140625 293.429688 235.113281 293.390625 235.082031 293.347656 C 234.960938 293.175781 234.847656 293.011719 234.738281 292.84375 C 234.710938 292.796875 234.679688 292.753906 234.648438 292.707031 C 234.527344 292.535156 234.414062 292.371094 234.304688 292.207031 C 234.277344 292.160156 234.246094 292.113281 234.214844 292.070312 C 234.09375 291.898438 233.976562 291.730469 233.871094 291.5625 C 233.84375 291.523438 233.816406 291.480469 233.785156 291.441406 C 233.664062 291.265625 233.546875 291.09375 233.4375 290.925781 C 233.410156 290.882812 233.378906 290.84375 233.351562 290.800781 C 233.230469 290.628906 233.113281 290.460938 233.007812 290.292969 C 232.976562 290.25 232.949219 290.207031 232.917969 290.160156 C 232.796875 289.988281 232.683594 289.824219 232.574219 289.660156 C 232.546875 289.613281 232.515625 289.566406 232.484375 289.523438 C 232.363281 289.351562 232.25 289.183594 232.140625 289.019531 C 232.113281 288.976562 232.082031 288.929688 232.050781 288.886719 C 231.929688 288.710938 231.8125 288.542969 231.703125 288.378906 C 231.675781 288.332031 231.644531 288.292969 231.617188 288.25 C 231.496094 288.074219 231.378906 287.90625 231.273438 287.742188 C 231.242188 287.699219 231.214844 287.65625 231.1875 287.617188 C 231.0625 287.441406 230.949219 287.273438 230.839844 287.105469 C 230.808594 287.0625 230.78125 287.019531 230.75 286.976562 C 230.628906 286.800781 230.511719 286.628906 230.402344 286.460938 C 230.375 286.421875 230.347656 286.382812 230.320312 286.347656 C 230.199219 286.167969 230.082031 286 229.972656 285.832031 C 229.941406 285.789062 229.914062 285.746094 229.882812 285.703125 C 229.761719 285.53125 229.648438 285.363281 229.542969 285.199219 C 229.511719 285.152344 229.480469 285.105469 229.449219 285.0625 C 229.328125 284.890625 229.21875 284.726562 229.109375 284.5625 C 229.082031 284.515625 229.050781 284.472656 229.019531 284.425781 C 228.898438 284.257812 228.785156 284.089844 228.675781 283.925781 C 228.644531 283.878906 228.613281 283.832031 228.582031 283.785156 C 228.464844 283.617188 228.351562 283.449219 228.246094 283.289062 C 228.214844 283.242188 228.183594 283.199219 228.152344 283.152344 C 228.03125 282.980469 227.917969 282.8125 227.808594 282.644531 C 227.78125 282.605469 227.753906 282.5625 227.726562 282.523438 C 227.601562 282.347656 227.488281 282.175781 227.375 282.011719 C 227.347656 281.964844 227.316406 281.921875 227.285156 281.878906 C 227.167969 281.707031 227.054688 281.542969 226.945312 281.378906 C 226.914062 281.332031 226.882812 281.28125 226.851562 281.234375 C 226.730469 281.066406 226.621094 280.902344 226.511719 280.742188 C 226.484375 280.695312 226.453125 280.652344 226.421875 280.609375 C 226.300781 280.4375 226.1875 280.269531 226.082031 280.105469 C 226.050781 280.058594 226.019531 280.011719 225.988281 279.96875 C 225.867188 279.796875 225.753906 279.632812 225.648438 279.464844 C 225.617188 279.421875 225.585938 279.378906 225.558594 279.335938 C 225.4375 279.160156 225.324219 278.996094 225.214844 278.832031 C 225.183594 278.785156 225.152344 278.738281 225.121094 278.695312 C 225 278.519531 224.886719 278.351562 224.777344 278.183594 C 224.75 278.144531 224.722656 278.101562 224.691406 278.0625 C 224.570312 277.886719 224.457031 277.722656 224.347656 277.554688 C 224.320312 277.511719 224.289062 277.46875 224.261719 277.425781 C 224.140625 277.253906 224.023438 277.085938 223.914062 276.917969 C 223.886719 276.875 223.855469 276.832031 223.828125 276.789062 C 223.707031 276.617188 223.589844 276.449219 223.480469 276.28125 C 223.449219 276.234375 223.417969 276.1875 223.386719 276.140625 C 223.265625 275.96875 223.152344 275.804688 223.046875 275.640625 C 223.015625 275.59375 222.988281 275.550781 222.957031 275.507812 C 222.835938 275.335938 222.71875 275.167969 222.609375 275 C 222.582031 274.957031 222.554688 274.917969 222.527344 274.875 C 222.40625 274.703125 222.292969 274.539062 222.183594 274.371094 C 222.152344 274.324219 222.121094 274.28125 222.089844 274.234375 C 221.972656 274.0625 221.855469 273.898438 221.75 273.734375 C 221.71875 273.6875 221.6875 273.640625 221.65625 273.597656 C 221.535156 273.425781 221.421875 273.257812 221.3125 273.089844 C 221.285156 273.050781 221.257812 273.007812 221.230469 272.96875 C 221.105469 272.792969 220.992188 272.621094 220.878906 272.453125 C 220.851562 272.410156 220.824219 272.371094 220.796875 272.328125 C 220.675781 272.15625 220.558594 271.988281 220.453125 271.820312 C 220.421875 271.777344 220.390625 271.734375 220.359375 271.6875 C 220.242188 271.515625 220.125 271.351562 220.019531 271.1875 C 219.988281 271.140625 219.957031 271.09375 219.925781 271.050781 C 219.808594 270.878906 219.691406 270.710938 219.585938 270.546875 C 219.554688 270.503906 219.523438 270.457031 219.496094 270.414062 C 219.371094 270.238281 219.257812 270.070312 219.148438 269.90625 C 219.121094 269.859375 219.089844 269.820312 219.0625 269.777344 C 218.9375 269.601562 218.824219 269.433594 218.714844 269.269531 C 218.6875 269.226562 218.660156 269.183594 218.632812 269.144531 C 218.507812 268.96875 218.394531 268.800781 218.28125 268.632812 C 218.253906 268.589844 218.226562 268.546875 218.195312 268.503906 C 218.070312 268.328125 217.957031 268.15625 217.84375 267.988281 C 217.820312 267.949219 217.792969 267.910156 217.765625 267.875 C 217.644531 267.695312 217.527344 267.527344 217.414062 267.359375 C 217.386719 267.316406 217.359375 267.273438 217.328125 267.230469 C 217.207031 267.058594 217.09375 266.890625 216.988281 266.726562 C 216.957031 266.679688 216.925781 266.632812 216.894531 266.589844 C 216.773438 266.417969 216.660156 266.253906 216.554688 266.089844 C 216.523438 266.042969 216.496094 266 216.464844 265.953125 C 216.34375 265.785156 216.230469 265.617188 216.121094 265.453125 C 216.089844 265.40625 216.058594 265.359375 216.027344 265.3125 C 215.90625 265.144531 215.792969 264.976562 215.6875 264.816406 C 215.660156 264.769531 215.628906 264.726562 215.597656 264.679688 C 215.476562 264.507812 215.359375 264.339844 215.25 264.171875 C 215.226562 264.132812 215.199219 264.089844 215.167969 264.050781 C 215.046875 263.875 214.929688 263.703125 214.820312 263.539062 C 214.789062 263.492188 214.761719 263.449219 214.730469 263.40625 C 214.609375 263.234375 214.496094 263.070312 214.390625 262.90625 C 214.359375 262.859375 214.328125 262.808594 214.292969 262.761719 C 214.175781 262.59375 214.0625 262.429688 213.957031 262.269531 C 213.925781 262.222656 213.898438 262.179688 213.867188 262.136719 C 213.480469 261.582031 213.140625 261.039062 212.828125 260.53125 C 212.648438 260.238281 212.503906 260.003906 212.351562 259.769531 C 212.105469 259.386719 211.921875 259.03125 211.792969 258.773438 L 211.753906 258.699219 C 211.710938 258.617188 211.667969 258.539062 211.625 258.460938 L 196.320312 231.960938 C 195.398438 230.359375 193.6875 229.375 191.84375 229.375 C 191.796875 229.375 191.746094 229.375 191.699219 229.378906 C 191.289062 229.390625 190.875 229.394531 190.453125 229.394531 C 180.847656 229.40625 171.25 229.40625 161.648438 229.40625 L 143.464844 229.410156 C 142.503906 229.410156 141.476562 229.421875 140.507812 229.5 C 140.214844 229.527344 139.929688 229.539062 139.648438 229.539062 C 136.558594 229.539062 133.929688 228.121094 132.238281 225.550781 C 132.1875 225.472656 132.136719 225.398438 132.082031 225.324219 C 131.992188 225.203125 131.910156 225.074219 131.828125 224.945312 C 131.777344 224.871094 131.707031 224.765625 131.652344 224.695312 C 131.5625 224.570312 131.480469 224.4375 131.394531 224.308594 C 131.339844 224.230469 131.269531 224.121094 131.210938 224.046875 C 131.128906 223.933594 131.050781 223.8125 130.972656 223.691406 C 130.925781 223.617188 130.839844 223.492188 130.785156 223.421875 C 130.699219 223.300781 130.617188 223.171875 130.53125 223.042969 C 130.484375 222.972656 130.410156 222.859375 130.359375 222.789062 C 130.261719 222.65625 130.175781 222.519531 130.082031 222.382812 C 130.035156 222.304688 129.972656 222.21875 129.921875 222.144531 C 129.832031 222.023438 129.75 221.894531 129.667969 221.769531 C 129.617188 221.695312 129.539062 221.578125 129.488281 221.507812 C 129.433594 221.433594 129.382812 221.359375 129.332031 221.28125 L 129.246094 221.152344 C 128.304688 219.738281 126.722656 218.878906 125.023438 218.851562 C 124.996094 218.851562 124.972656 218.851562 124.945312 218.851562 C 123.277344 218.851562 121.703125 219.660156 120.734375 221.027344 C 116.96875 226.324219 111.40625 229.582031 104.65625 230.453125 C 103.777344 230.566406 102.957031 230.578125 102.339844 230.578125 C 102.078125 230.578125 100.878906 230.566406 100.878906 230.566406 L 79.566406 230.570312 C 70.71875 230.570312 61.875 230.570312 53.027344 230.554688 C 51.609375 230.554688 50.09375 230.410156 48.519531 230.128906 C 45.765625 229.640625 43.441406 228.144531 41.980469 225.917969 C 41.929688 225.84375 41.878906 225.769531 41.828125 225.699219 C 41.738281 225.578125 41.65625 225.449219 41.574219 225.324219 C 41.523438 225.246094 41.445312 225.128906 41.390625 225.054688 C 41.308594 224.945312 41.230469 224.824219 41.15625 224.707031 C 41.15625 224.707031 41.113281 224.644531 41.113281 224.640625 C 41.0625 224.566406 41.011719 224.492188 40.957031 224.417969 C 40.871094 224.304688 40.796875 224.183594 40.71875 224.0625 C 40.667969 223.984375 40.578125 223.859375 40.523438 223.78125 C 40.4375 223.664062 40.355469 223.535156 40.277344 223.414062 C 40.222656 223.332031 40.144531 223.21875 40.089844 223.140625 C 40.007812 223.03125 39.933594 222.914062 39.855469 222.796875 C 39.855469 222.796875 39.714844 222.585938 39.660156 222.511719 C 39.578125 222.402344 39.503906 222.28125 39.425781 222.164062 L 39.382812 222.09375 C 39.332031 222.019531 39.28125 221.945312 39.226562 221.875 C 39.144531 221.761719 39.070312 221.640625 38.992188 221.523438 L 38.949219 221.457031 C 38.898438 221.382812 38.847656 221.304688 38.792969 221.234375 C 38.710938 221.121094 38.636719 221.003906 38.558594 220.886719 C 38.558594 220.886719 38.417969 220.675781 38.367188 220.601562 C 38.277344 220.484375 38.199219 220.359375 38.117188 220.234375 C 38.070312 220.160156 37.984375 220.039062 37.933594 219.96875 C 37.84375 219.84375 37.761719 219.71875 37.679688 219.589844 C 37.628906 219.511719 37.550781 219.398438 37.496094 219.324219 C 37.414062 219.210938 37.339844 219.09375 37.261719 218.980469 L 37.21875 218.910156 C 37.167969 218.832031 37.117188 218.761719 37.0625 218.6875 C 36.980469 218.574219 36.902344 218.453125 36.824219 218.332031 C 36.773438 218.253906 36.683594 218.125 36.628906 218.050781 C 36.542969 217.929688 36.460938 217.804688 36.378906 217.679688 C 36.328125 217.601562 36.25 217.484375 36.191406 217.410156 C 36.109375 217.296875 36.035156 217.179688 35.960938 217.0625 C 35.910156 216.984375 35.816406 216.851562 35.761719 216.777344 C 35.679688 216.660156 35.601562 216.539062 35.523438 216.421875 C 35.472656 216.34375 35.386719 216.214844 35.328125 216.140625 C 35.246094 216.027344 35.171875 215.910156 35.097656 215.792969 L 35.050781 215.726562 C 35.003906 215.648438 34.953125 215.578125 34.898438 215.503906 C 34.8125 215.382812 34.730469 215.257812 34.648438 215.132812 C 34.601562 215.058594 34.523438 214.945312 34.46875 214.871094 C 34.378906 214.75 34.300781 214.625 34.21875 214.496094 C 34.167969 214.421875 34.085938 214.304688 34.03125 214.230469 C 33.945312 214.109375 33.863281 213.984375 33.785156 213.859375 C 33.734375 213.78125 33.65625 213.667969 33.601562 213.59375 C 33.515625 213.480469 33.441406 213.359375 33.363281 213.242188 C 33.363281 213.242188 33.324219 213.179688 33.324219 213.179688 C 33.273438 213.101562 33.21875 213.027344 33.167969 212.953125 C 33.078125 212.835938 33 212.710938 32.917969 212.585938 C 32.867188 212.507812 32.789062 212.394531 32.734375 212.316406 C 32.652344 212.207031 32.574219 212.085938 32.5 211.96875 C 32.5 211.96875 32.355469 211.753906 32.300781 211.679688 C 32.214844 211.566406 32.140625 211.445312 32.0625 211.328125 C 32.011719 211.25 31.921875 211.121094 31.867188 211.042969 C 31.78125 210.925781 31.703125 210.800781 31.621094 210.675781 C 31.570312 210.601562 31.492188 210.484375 31.4375 210.40625 C 31.347656 210.289062 31.269531 210.164062 31.1875 210.039062 C 31.136719 209.960938 31.058594 209.847656 31.003906 209.773438 C 30.914062 209.65625 30.835938 209.53125 30.757812 209.40625 C 30.707031 209.328125 30.625 209.210938 30.570312 209.132812 C 30.488281 209.023438 30.410156 208.90625 30.335938 208.785156 C 30.335938 208.785156 30.292969 208.722656 30.292969 208.722656 C 30.242188 208.644531 30.191406 208.570312 30.136719 208.5 C 30.058594 208.390625 29.988281 208.277344 29.914062 208.167969 C 29.914062 208.167969 29.757812 207.9375 29.710938 207.871094 C 29.621094 207.75 29.542969 207.625 29.460938 207.5 C 29.414062 207.429688 29.328125 207.304688 29.277344 207.234375 C 29.1875 207.109375 29.105469 206.984375 29.023438 206.855469 C 28.972656 206.78125 28.894531 206.664062 28.839844 206.589844 C 28.753906 206.476562 28.679688 206.359375 28.601562 206.238281 C 28.601562 206.238281 28.5625 206.175781 28.5625 206.175781 C 28.511719 206.097656 28.460938 206.023438 28.40625 205.949219 C 28.320312 205.835938 28.246094 205.714844 28.167969 205.597656 C 28.117188 205.519531 28.027344 205.390625 27.972656 205.316406 C 27.886719 205.195312 27.804688 205.070312 27.722656 204.945312 C 27.671875 204.867188 27.59375 204.75 27.539062 204.675781 C 27.457031 204.5625 27.382812 204.445312 27.304688 204.328125 C 27.304688 204.328125 27.164062 204.117188 27.109375 204.046875 C 27.027344 203.933594 26.953125 203.816406 26.875 203.699219 L 26.828125 203.628906 C 26.78125 203.550781 26.730469 203.480469 26.675781 203.40625 C 26.59375 203.292969 26.515625 203.171875 26.441406 203.054688 L 26.398438 202.992188 C 26.347656 202.914062 26.296875 202.839844 26.242188 202.765625 C 26.160156 202.65625 26.085938 202.535156 26.007812 202.417969 C 26.007812 202.417969 25.867188 202.207031 25.8125 202.136719 C 25.726562 202.015625 25.648438 201.890625 25.566406 201.769531 C 25.515625 201.695312 25.433594 201.570312 25.382812 201.5 C 25.292969 201.378906 25.210938 201.25 25.128906 201.125 C 25.078125 201.046875 25 200.929688 24.945312 200.855469 C 24.863281 200.746094 24.789062 200.628906 24.710938 200.511719 L 24.664062 200.441406 C 24.617188 200.367188 24.566406 200.292969 24.511719 200.222656 C 24.425781 200.105469 24.351562 199.984375 24.273438 199.863281 C 24.222656 199.789062 24.132812 199.660156 24.078125 199.582031 C 23.988281 199.464844 23.910156 199.335938 23.828125 199.210938 C 23.777344 199.132812 23.699219 199.019531 23.640625 198.941406 C 23.558594 198.828125 23.484375 198.710938 23.410156 198.59375 C 23.359375 198.519531 23.265625 198.382812 23.210938 198.308594 C 23.128906 198.195312 23.050781 198.074219 22.972656 197.953125 C 22.921875 197.875 22.835938 197.746094 22.777344 197.671875 C 22.695312 197.558594 22.621094 197.441406 22.546875 197.328125 L 22.5 197.257812 C 22.453125 197.183594 22.402344 197.109375 22.347656 197.039062 C 22.257812 196.917969 22.179688 196.792969 22.097656 196.667969 C 22.046875 196.589844 21.972656 196.480469 21.917969 196.40625 C 21.828125 196.285156 21.75 196.15625 21.664062 196.03125 C 21.613281 195.953125 21.535156 195.835938 21.480469 195.761719 C 21.394531 195.644531 21.3125 195.515625 21.230469 195.394531 C 21.179688 195.316406 21.105469 195.199219 21.046875 195.125 C 20.964844 195.011719 20.890625 194.894531 20.8125 194.773438 C 20.8125 194.773438 20.769531 194.714844 20.769531 194.710938 C 20.722656 194.636719 20.667969 194.5625 20.613281 194.488281 C 20.527344 194.367188 20.449219 194.246094 20.367188 194.121094 C 20.316406 194.042969 20.238281 193.925781 20.183594 193.851562 C 20.097656 193.738281 20.023438 193.621094 19.945312 193.503906 C 19.945312 193.503906 19.804688 193.289062 19.75 193.214844 C 19.664062 193.101562 19.589844 192.980469 19.511719 192.859375 C 19.460938 192.78125 19.371094 192.652344 19.316406 192.578125 C 19.230469 192.460938 19.148438 192.335938 19.070312 192.210938 C 19.019531 192.132812 18.9375 192.015625 18.882812 191.941406 C 18.796875 191.824219 18.714844 191.695312 18.636719 191.570312 C 18.585938 191.496094 18.507812 191.378906 18.453125 191.304688 C 18.363281 191.1875 18.285156 191.0625 18.203125 190.941406 C 18.152344 190.863281 18.074219 190.742188 18.019531 190.667969 C 17.933594 190.554688 17.859375 190.4375 17.78125 190.320312 C 17.78125 190.320312 17.742188 190.257812 17.742188 190.253906 C 17.691406 190.179688 17.640625 190.105469 17.585938 190.03125 C 17.507812 189.925781 17.433594 189.8125 17.363281 189.699219 C 17.363281 189.699219 17.207031 189.46875 17.15625 189.398438 C 15.964844 187.777344 15.296875 185.785156 15.222656 183.636719 C 15.152344 181.476562 15.53125 179.421875 16.351562 177.523438 C 17.125 175.746094 18.003906 173.96875 18.96875 172.234375 C 19.929688 170.507812 20.929688 168.808594 21.894531 167.164062 L 21.945312 167.078125 C 22.476562 166.171875 23.007812 165.269531 23.53125 164.363281 C 38.847656 137.839844 54.160156 111.3125 69.472656 84.785156 C 70.058594 83.769531 70.652344 82.695312 71.164062 81.769531 C 72.777344 78.839844 75.101562 76.515625 78.074219 74.863281 C 82.40625 72.460938 87.113281 71.238281 92.050781 71.238281 C 112.59375 71.234375 133.136719 71.234375 153.675781 71.234375 L 204.9375 71.234375 C 205.027344 71.234375 205.117188 71.238281 205.207031 71.242188 C 205.3125 71.25 205.414062 71.253906 205.519531 71.253906 L 238.542969 71.253906 C 263.75 71.253906 288.957031 71.253906 314.164062 71.25 C 314.660156 71.25 315.238281 71.230469 315.851562 71.207031 C 316.515625 71.179688 317.21875 71.152344 317.960938 71.152344 C 318.410156 71.152344 318.824219 71.164062 319.230469 71.183594 C 320.839844 71.269531 322.542969 71.492188 324.425781 71.871094 C 326.335938 72.25 328.128906 73.148438 329.757812 74.535156 C 330.683594 75.328125 331.476562 76.222656 332.109375 77.203125 C 332.152344 77.269531 332.195312 77.335938 332.242188 77.402344 C 332.347656 77.546875 332.445312 77.695312 332.542969 77.84375 C 332.585938 77.910156 332.632812 77.976562 332.675781 78.042969 C 332.78125 78.183594 332.878906 78.332031 332.972656 78.476562 C 333.015625 78.546875 333.0625 78.613281 333.109375 78.679688 C 333.214844 78.820312 333.3125 78.96875 333.40625 79.113281 C 333.449219 79.183594 333.496094 79.25 333.542969 79.316406 C 333.648438 79.460938 333.746094 79.605469 333.839844 79.753906 C 333.882812 79.820312 333.929688 79.882812 333.976562 79.949219 C 334.078125 80.09375 334.175781 80.238281 334.273438 80.386719 C 334.316406 80.453125 334.363281 80.519531 334.410156 80.585938 C 334.511719 80.730469 334.613281 80.878906 334.710938 81.027344 C 334.753906 81.09375 334.796875 81.160156 334.84375 81.226562 C 334.945312 81.367188 335.042969 81.511719 335.136719 81.65625 C 335.183594 81.726562 335.230469 81.796875 335.277344 81.867188 C 335.382812 82.007812 335.480469 82.152344 335.574219 82.300781 C 335.617188 82.363281 335.660156 82.429688 335.707031 82.496094 C 335.808594 82.636719 335.90625 82.785156 336.003906 82.929688 C 336.046875 83 336.09375 83.066406 336.140625 83.136719 C 336.242188 83.277344 336.339844 83.425781 336.4375 83.570312 C 336.480469 83.640625 336.527344 83.707031 336.574219 83.773438 C 336.675781 83.914062 336.773438 84.058594 336.867188 84.203125 C 336.914062 84.273438 336.960938 84.34375 337.011719 84.414062 C 337.113281 84.554688 337.207031 84.695312 337.300781 84.839844 C 337.347656 84.910156 337.394531 84.980469 337.441406 85.046875 C 337.542969 85.191406 337.640625 85.335938 337.738281 85.484375 C 337.78125 85.550781 337.828125 85.617188 337.871094 85.683594 C 337.976562 85.824219 338.074219 85.972656 338.167969 86.117188 C 338.214844 86.1875 338.257812 86.253906 338.304688 86.320312 C 338.410156 86.460938 338.507812 86.609375 338.601562 86.753906 C 338.644531 86.820312 338.691406 86.886719 338.738281 86.953125 C 338.839844 87.097656 338.9375 87.242188 339.03125 87.386719 C 339.078125 87.457031 339.125 87.527344 339.171875 87.59375 C 339.273438 87.734375 339.371094 87.882812 339.46875 88.027344 C 339.511719 88.097656 339.558594 88.167969 339.609375 88.234375 C 339.710938 88.375 339.808594 88.519531 339.898438 88.664062 C 339.945312 88.734375 339.992188 88.800781 340.039062 88.867188 C 340.140625 89.011719 340.242188 89.15625 340.335938 89.304688 C 340.378906 89.371094 340.421875 89.433594 340.46875 89.5 C 340.570312 89.644531 340.671875 89.789062 340.765625 89.9375 C 340.8125 90.007812 340.859375 90.074219 340.90625 90.140625 C 341.007812 90.28125 341.105469 90.425781 341.199219 90.574219 C 341.242188 90.640625 341.289062 90.710938 341.335938 90.777344 C 341.441406 90.917969 341.539062 91.0625 341.632812 91.210938 C 341.675781 91.277344 341.71875 91.34375 341.765625 91.40625 C 341.867188 91.550781 341.96875 91.695312 342.0625 91.84375 C 342.109375 91.914062 342.15625 91.980469 342.203125 92.050781 C 342.304688 92.191406 342.402344 92.335938 342.496094 92.484375 C 342.539062 92.550781 342.585938 92.617188 342.632812 92.683594 C 342.734375 92.824219 342.832031 92.972656 342.929688 93.117188 C 342.972656 93.1875 343.019531 93.257812 343.066406 93.324219 C 343.171875 93.464844 343.269531 93.613281 343.363281 93.761719 C 343.410156 93.828125 343.453125 93.894531 343.5 93.960938 C 343.601562 94.101562 343.699219 94.246094 343.792969 94.390625 C 343.839844 94.460938 343.886719 94.527344 343.933594 94.59375 C 344.035156 94.738281 344.132812 94.886719 344.230469 95.035156 C 344.273438 95.101562 344.320312 95.167969 344.367188 95.234375 C 344.46875 95.375 344.566406 95.519531 344.660156 95.667969 C 344.703125 95.734375 344.75 95.800781 344.796875 95.867188 C 344.902344 96.011719 345 96.160156 345.097656 96.308594 C 345.140625 96.375 345.1875 96.441406 345.230469 96.507812 C 345.335938 96.652344 345.433594 96.796875 345.527344 96.941406 C 345.570312 97.011719 345.617188 97.078125 345.664062 97.144531 C 345.765625 97.289062 345.867188 97.433594 345.960938 97.578125 C 346.003906 97.648438 346.050781 97.714844 346.097656 97.78125 C 346.203125 97.925781 346.300781 98.070312 346.394531 98.21875 C 346.4375 98.285156 346.484375 98.347656 346.527344 98.414062 C 346.632812 98.558594 346.730469 98.703125 346.828125 98.851562 C 346.871094 98.917969 346.917969 98.984375 346.960938 99.050781 C 347.066406 99.195312 347.167969 99.34375 347.265625 99.496094 C 347.308594 99.558594 347.351562 99.625 347.398438 99.691406 C 347.5 99.832031 347.597656 99.976562 347.691406 100.121094 C 347.738281 100.191406 347.785156 100.261719 347.832031 100.332031 C 347.9375 100.472656 348.035156 100.621094 348.128906 100.765625 C 348.171875 100.832031 348.214844 100.894531 348.261719 100.960938 C 348.363281 101.105469 348.460938 101.25 348.554688 101.394531 C 348.601562 101.464844 348.648438 101.535156 348.695312 101.601562 C 348.796875 101.742188 348.894531 101.890625 348.992188 102.035156 C 349.035156 102.105469 349.082031 102.171875 349.128906 102.238281 C 349.230469 102.378906 349.328125 102.523438 349.421875 102.667969 C 349.46875 102.738281 349.515625 102.808594 349.566406 102.878906 C 349.664062 103.019531 349.761719 103.160156 349.855469 103.304688 C 349.902344 103.375 349.945312 103.445312 349.996094 103.511719 C 350.097656 103.65625 350.195312 103.800781 350.292969 103.949219 C 350.335938 104.015625 350.378906 104.082031 350.425781 104.148438 C 350.53125 104.289062 350.628906 104.4375 350.722656 104.582031 C 350.769531 104.652344 350.8125 104.71875 350.859375 104.785156 C 350.960938 104.925781 351.0625 105.074219 351.15625 105.21875 C 351.199219 105.285156 351.246094 105.355469 351.292969 105.417969 C 351.394531 105.5625 351.492188 105.707031 351.585938 105.851562 C 351.632812 105.921875 351.679688 105.992188 351.726562 106.058594 C 351.828125 106.203125 351.925781 106.347656 352.023438 106.492188 C 352.066406 106.5625 352.113281 106.632812 352.164062 106.699219 C 352.265625 106.839844 352.363281 106.984375 352.453125 107.128906 C 352.5 107.199219 352.546875 107.265625 352.59375 107.332031 C 352.695312 107.476562 352.796875 107.625 352.890625 107.769531 C 352.933594 107.835938 352.976562 107.898438 353.023438 107.964844 C 353.125 108.109375 353.226562 108.253906 353.320312 108.402344 C 353.367188 108.472656 353.410156 108.539062 353.460938 108.605469 C 353.5625 108.75 353.660156 108.894531 353.753906 109.039062 C 353.796875 109.109375 353.84375 109.175781 353.890625 109.242188 C 353.992188 109.382812 354.09375 109.53125 354.1875 109.675781 C 354.230469 109.742188 354.273438 109.808594 354.320312 109.871094 C 354.421875 110.015625 354.523438 110.164062 354.617188 110.308594 C 354.664062 110.378906 354.707031 110.449219 354.757812 110.515625 C 354.859375 110.65625 354.957031 110.800781 355.050781 110.949219 C 355.09375 111.015625 355.140625 111.082031 355.1875 111.148438 C 355.289062 111.289062 355.386719 111.4375 355.484375 111.582031 C 355.527344 111.652344 355.574219 111.722656 355.621094 111.789062 C 355.726562 111.929688 355.824219 112.078125 355.917969 112.226562 C 355.964844 112.292969 356.007812 112.359375 356.054688 112.425781 C 356.15625 112.566406 356.253906 112.710938 356.347656 112.855469 C 356.394531 112.925781 356.4375 112.996094 356.488281 113.0625 C 356.589844 113.203125 356.6875 113.351562 356.785156 113.5 C 356.828125 113.566406 356.875 113.632812 356.921875 113.699219 C 358.777344 116.289062 359.339844 119.378906 358.550781 122.632812 Z M 358.546875 122.648438 "/><path style=" stroke:none;fill-rule:nonzero;fill:#f8fbeb;fill-opacity:1;" d="M 329.128906 84.671875 C 328.824219 85.90625 328.308594 87.140625 327.644531 88.21875 C 316.867188 105.820312 306.890625 123.886719 296.511719 141.714844 C 286.144531 159.523438 275.898438 177.386719 265.597656 195.226562 C 255.285156 213.097656 244.960938 230.964844 234.648438 248.839844 C 233.003906 251.691406 231.4375 254.597656 229.707031 257.398438 C 228.296875 259.679688 226.355469 261.402344 223.644531 262.050781 C 223.097656 262.183594 222.558594 262.25 222.042969 262.25 C 220.527344 262.25 219.183594 261.667969 218.089844 260.390625 C 217.316406 259.480469 216.730469 258.394531 216.074219 257.375 C 215.859375 257.042969 215.703125 256.683594 215.503906 256.34375 C 207.972656 243.277344 200.429688 230.21875 192.882812 217.152344 C 192.503906 216.503906 192.136719 215.847656 191.691406 215.242188 C 189.308594 212.027344 188.761719 208.402344 189.175781 204.523438 C 189.648438 200.097656 191.199219 196.097656 193.457031 192.261719 C 198.511719 183.726562 203.414062 175.089844 208.378906 166.5 C 212.179688 159.914062 215.984375 153.316406 219.789062 146.730469 C 227.734375 132.96875 235.683594 119.210938 243.625 105.441406 C 245.070312 102.929688 246.519531 100.414062 247.878906 97.851562 C 248.550781 96.59375 249.148438 95.273438 249.523438 93.90625 C 250.269531 91.21875 249.007812 89.171875 246.320312 88.394531 C 245.640625 88.195312 244.960938 88.109375 244.289062 88.109375 C 243.335938 88.109375 242.390625 88.285156 241.453125 88.574219 C 239.539062 89.164062 237.871094 90.207031 236.40625 91.566406 C 234.878906 92.976562 233.554688 94.519531 232.597656 96.433594 C 231.363281 98.890625 229.871094 101.226562 228.496094 103.609375 C 219.988281 118.351562 211.472656 133.09375 202.964844 147.835938 C 197.234375 157.765625 191.507812 167.683594 185.777344 177.609375 C 185.007812 178.9375 184.34375 180.34375 183.238281 181.441406 C 182.378906 182.300781 181.582031 183.265625 180.59375 183.9375 C 177.410156 186.097656 173.945312 187.59375 170.046875 187.847656 C 168.472656 187.949219 166.90625 188.054688 165.332031 188.054688 C 149.675781 188.066406 134.011719 188.0625 118.351562 188.066406 C 117.246094 188.066406 116.128906 188.082031 115.027344 188.171875 C 114.859375 188.1875 114.695312 188.195312 114.539062 188.195312 C 112.164062 188.195312 110.789062 186.664062 110.144531 184.816406 C 109.636719 183.347656 109.71875 181.855469 110.078125 180.363281 C 110.523438 178.53125 111.378906 176.878906 112.308594 175.261719 C 114.207031 171.972656 116.128906 168.695312 118.027344 165.410156 C 120.425781 161.25 122.828125 157.097656 125.222656 152.941406 C 135.433594 135.257812 145.648438 117.570312 155.835938 99.875 C 156.816406 98.175781 157.554688 96.335938 158.367188 94.542969 C 158.589844 94.0625 158.714844 93.523438 158.804688 92.996094 C 159.152344 91.039062 158.242188 89.445312 156.390625 88.722656 C 155.613281 88.410156 154.832031 88.285156 154.039062 88.285156 C 153.316406 88.285156 152.578125 88.394531 151.847656 88.574219 C 149.570312 89.121094 147.585938 90.242188 145.777344 91.691406 C 143.375 93.625 141.515625 95.964844 139.984375 98.664062 C 135.433594 106.714844 130.769531 114.691406 126.144531 122.6875 C 120.101562 133.15625 114.0625 143.621094 108.019531 154.085938 C 103.328125 162.203125 98.648438 170.320312 93.957031 178.4375 C 93.402344 179.398438 92.839844 180.355469 92.214844 181.273438 C 89.015625 185.933594 84.519531 188.429688 78.976562 189.144531 C 78.402344 189.21875 77.8125 189.234375 77.226562 189.234375 C 76.742188 189.234375 76.253906 189.21875 75.773438 189.21875 L 75.765625 189.21875 C 68.660156 189.226562 61.5625 189.226562 54.457031 189.226562 C 46.164062 189.226562 37.859375 189.21875 29.558594 189.210938 L 27.921875 189.210938 C 26.679688 189.207031 25.417969 189.074219 24.191406 188.851562 C 21.457031 188.371094 19.738281 186.28125 19.648438 183.503906 C 19.597656 182.046875 19.839844 180.625 20.410156 179.308594 C 21.140625 177.640625 21.953125 176 22.839844 174.410156 C 24.300781 171.78125 25.859375 169.203125 27.359375 166.597656 C 42.675781 140.074219 57.996094 113.546875 73.304688 87.023438 C 73.898438 85.996094 74.464844 84.960938 75.042969 83.929688 C 76.261719 81.695312 77.996094 79.992188 80.21875 78.757812 C 83.898438 76.71875 87.847656 75.691406 92.042969 75.691406 C 112.703125 75.683594 133.359375 75.683594 154.019531 75.683594 L 204.929688 75.683594 L 204.929688 75.707031 L 239.6875 75.707031 C 264.511719 75.707031 289.335938 75.699219 314.15625 75.699219 C 315.421875 75.699219 316.691406 75.605469 317.953125 75.605469 C 318.300781 75.605469 318.648438 75.613281 318.988281 75.625 C 320.515625 75.707031 322.054688 75.9375 323.550781 76.238281 C 324.792969 76.484375 325.902344 77.101562 326.875 77.929688 C 328.972656 79.726562 329.769531 82.007812 329.128906 84.671875 Z M 329.128906 84.671875 "/><g clip-rule="nonzero" clip-path="url(#64b596812d)"><path style=" stroke:none;fill-rule:nonzero;fill:#7e28c1;fill-opacity:1;" d="M 361.121094 110.707031 C 360.980469 110.492188 360.835938 110.28125 360.6875 110.070312 C 360.550781 109.855469 360.40625 109.644531 360.253906 109.433594 C 360.117188 109.21875 359.972656 109.007812 359.820312 108.796875 C 359.683594 108.582031 359.539062 108.371094 359.386719 108.160156 C 359.25 107.945312 359.105469 107.730469 358.957031 107.523438 C 358.816406 107.308594 358.671875 107.09375 358.523438 106.886719 C 358.382812 106.671875 358.238281 106.457031 358.089844 106.25 C 357.953125 106.035156 357.808594 105.824219 357.65625 105.613281 C 357.519531 105.398438 357.375 105.1875 357.222656 104.976562 C 357.085938 104.761719 356.941406 104.550781 356.792969 104.339844 C 356.652344 104.125 356.507812 103.914062 356.359375 103.703125 C 356.21875 103.488281 356.074219 103.273438 355.925781 103.066406 C 355.785156 102.851562 355.640625 102.636719 355.492188 102.429688 C 355.351562 102.214844 355.207031 102 355.058594 101.792969 C 354.921875 101.578125 354.777344 101.363281 354.625 101.15625 C 354.488281 100.941406 354.34375 100.726562 354.195312 100.519531 C 354.054688 100.304688 353.910156 100.089844 353.761719 99.882812 C 353.621094 99.667969 353.476562 99.453125 353.328125 99.246094 C 353.1875 99.03125 353.042969 98.816406 352.894531 98.609375 C 352.753906 98.394531 352.613281 98.179688 352.460938 97.972656 C 352.324219 97.757812 352.179688 97.542969 352.027344 97.332031 C 351.890625 97.117188 351.746094 96.90625 351.59375 96.699219 C 351.457031 96.484375 351.3125 96.269531 351.164062 96.0625 C 351.023438 95.847656 350.878906 95.632812 350.730469 95.425781 C 350.589844 95.210938 350.445312 94.996094 350.296875 94.789062 C 350.15625 94.574219 350.011719 94.359375 349.863281 94.152344 C 349.722656 93.9375 349.582031 93.722656 349.429688 93.515625 C 349.292969 93.300781 349.148438 93.085938 348.996094 92.878906 C 348.859375 92.664062 348.714844 92.449219 348.5625 92.242188 C 348.425781 92.027344 348.28125 91.8125 348.132812 91.605469 C 347.992188 91.390625 347.847656 91.179688 347.699219 90.96875 C 347.558594 90.753906 347.414062 90.542969 347.265625 90.332031 C 347.125 90.117188 346.984375 89.90625 346.832031 89.695312 C 346.691406 89.480469 346.550781 89.265625 346.398438 89.058594 C 346.261719 88.84375 346.117188 88.628906 345.964844 88.417969 C 345.828125 88.207031 345.683594 87.992188 345.535156 87.785156 C 345.394531 87.570312 345.25 87.355469 345.101562 87.148438 C 344.960938 86.933594 344.816406 86.71875 344.667969 86.511719 C 344.527344 86.296875 344.386719 86.082031 344.234375 85.875 C 344.097656 85.660156 343.953125 85.445312 343.800781 85.238281 C 343.664062 85.023438 343.519531 84.808594 343.367188 84.601562 C 343.230469 84.386719 343.085938 84.171875 342.933594 83.964844 C 342.796875 83.75 342.652344 83.535156 342.503906 83.328125 C 342.363281 83.113281 342.21875 82.898438 342.070312 82.691406 C 341.929688 82.476562 341.785156 82.261719 341.636719 82.054688 C 341.496094 81.839844 341.355469 81.625 341.203125 81.417969 C 341.066406 81.203125 340.921875 80.988281 340.769531 80.777344 C 340.632812 80.566406 340.488281 80.351562 340.335938 80.144531 C 340.199219 79.925781 340.054688 79.714844 339.90625 79.507812 C 339.765625 79.289062 339.621094 79.078125 339.472656 78.867188 C 339.332031 78.652344 339.1875 78.441406 339.039062 78.234375 C 338.898438 78.019531 338.753906 77.804688 338.605469 77.597656 C 338.464844 77.382812 338.324219 77.167969 338.171875 76.960938 C 338.035156 76.746094 337.890625 76.53125 337.738281 76.320312 C 337.601562 76.109375 337.457031 75.894531 337.304688 75.6875 C 337.167969 75.472656 337.023438 75.257812 336.875 75.050781 C 336.734375 74.835938 336.589844 74.621094 336.441406 74.410156 C 336.433594 74.402344 336.429688 74.394531 336.421875 74.386719 C 336.21875 74.078125 336.007812 73.773438 335.78125 73.472656 C 335.757812 73.4375 335.730469 73.402344 335.707031 73.367188 C 335.503906 73.101562 335.289062 72.84375 335.070312 72.585938 C 335.011719 72.519531 334.953125 72.449219 334.894531 72.378906 C 334.714844 72.179688 334.523438 71.984375 334.332031 71.789062 C 334.226562 71.675781 334.121094 71.5625 334.007812 71.453125 C 333.890625 71.339844 333.765625 71.230469 333.644531 71.117188 C 333.464844 70.953125 333.292969 70.78125 333.101562 70.621094 C 330.796875 68.652344 328.214844 67.375 325.433594 66.820312 C 324.691406 66.671875 323.980469 66.550781 323.28125 66.445312 C 321.964844 66.242188 320.707031 66.101562 319.496094 66.039062 C 319.304688 66.027344 319.109375 66.023438 318.914062 66.015625 C 318.605469 66.007812 318.289062 66 317.953125 66 C 317.140625 66 316.375 66.03125 315.695312 66.050781 C 315.214844 66.070312 314.773438 66.085938 314.371094 66.09375 C 314.300781 66.09375 314.222656 66.097656 314.15625 66.097656 C 288.949219 66.101562 263.746094 66.101562 238.539062 66.101562 L 205.511719 66.101562 C 205.375 66.09375 205.234375 66.089844 205.097656 66.089844 C 205.039062 66.085938 204.984375 66.082031 204.929688 66.082031 L 154.019531 66.082031 C 148.40625 66.082031 142.792969 66.082031 137.179688 66.082031 C 122.132812 66.082031 107.089844 66.082031 92.046875 66.085938 C 86.21875 66.089844 80.667969 67.527344 75.558594 70.363281 C 71.722656 72.492188 68.714844 75.496094 66.625 79.296875 C 66.324219 79.847656 65.988281 80.457031 65.640625 81.070312 C 65.472656 81.371094 65.304688 81.671875 65.132812 81.96875 C 65.085938 82.050781 65.039062 82.136719 64.988281 82.21875 C 49.675781 108.746094 34.363281 135.273438 19.046875 161.796875 C 18.511719 162.71875 17.972656 163.640625 17.429688 164.5625 C 17.015625 165.265625 16.59375 165.988281 16.171875 166.714844 C 15.988281 167.03125 15.804688 167.347656 15.621094 167.667969 C 15.226562 168.355469 14.832031 169.039062 14.445312 169.738281 C 13.394531 171.621094 12.441406 173.554688 11.601562 175.484375 C 11.050781 176.761719 10.644531 178.085938 10.382812 179.453125 C 10.378906 179.480469 10.371094 179.503906 10.367188 179.53125 C 10.109375 180.925781 10 182.359375 10.050781 183.828125 C 10.066406 184.277344 10.101562 184.71875 10.152344 185.15625 C 10.160156 185.230469 10.175781 185.304688 10.183594 185.378906 C 10.230469 185.722656 10.28125 186.0625 10.347656 186.398438 C 10.375 186.542969 10.410156 186.683594 10.441406 186.824219 C 10.5 187.085938 10.558594 187.34375 10.628906 187.597656 C 10.675781 187.769531 10.730469 187.9375 10.785156 188.105469 C 10.851562 188.324219 10.921875 188.535156 11 188.746094 C 11.066406 188.933594 11.136719 189.117188 11.210938 189.300781 C 11.289062 189.484375 11.367188 189.664062 11.449219 189.84375 C 11.535156 190.039062 11.625 190.230469 11.722656 190.421875 C 11.800781 190.578125 11.886719 190.726562 11.972656 190.878906 C 12.082031 191.082031 12.191406 191.28125 12.3125 191.476562 C 12.390625 191.601562 12.476562 191.722656 12.558594 191.847656 C 12.691406 192.054688 12.828125 192.265625 12.976562 192.464844 C 12.976562 192.46875 12.980469 192.472656 12.984375 192.476562 C 13.125 192.691406 13.265625 192.90625 13.417969 193.113281 C 13.558594 193.328125 13.699219 193.542969 13.851562 193.75 C 13.992188 193.964844 14.132812 194.183594 14.285156 194.390625 C 14.425781 194.605469 14.5625 194.820312 14.714844 195.027344 C 14.855469 195.242188 14.996094 195.457031 15.148438 195.664062 C 15.289062 195.878906 15.429688 196.09375 15.582031 196.296875 C 15.722656 196.515625 15.863281 196.730469 16.015625 196.9375 C 16.15625 197.152344 16.296875 197.367188 16.449219 197.570312 C 16.589844 197.785156 16.730469 198.003906 16.878906 198.207031 C 17.019531 198.421875 17.160156 198.640625 17.3125 198.847656 C 17.453125 199.0625 17.59375 199.277344 17.746094 199.484375 C 17.886719 199.699219 18.027344 199.914062 18.179688 200.121094 C 18.320312 200.335938 18.460938 200.550781 18.613281 200.757812 C 18.753906 200.972656 18.894531 201.1875 19.046875 201.394531 C 19.1875 201.609375 19.328125 201.824219 19.480469 202.03125 C 19.621094 202.246094 19.757812 202.460938 19.910156 202.667969 C 20.050781 202.882812 20.191406 203.097656 20.34375 203.304688 C 20.484375 203.519531 20.625 203.734375 20.777344 203.941406 C 20.917969 204.15625 21.058594 204.371094 21.210938 204.578125 C 21.351562 204.792969 21.492188 205.007812 21.644531 205.214844 C 21.785156 205.429688 21.925781 205.644531 22.074219 205.851562 C 22.214844 206.066406 22.355469 206.28125 22.507812 206.488281 C 22.648438 206.703125 22.789062 206.917969 22.941406 207.125 C 23.082031 207.339844 23.222656 207.554688 23.375 207.761719 C 23.515625 207.976562 23.65625 208.191406 23.808594 208.398438 C 23.949219 208.613281 24.089844 208.828125 24.242188 209.035156 C 24.382812 209.25 24.523438 209.464844 24.675781 209.671875 C 24.816406 209.886719 24.957031 210.101562 25.105469 210.308594 C 25.246094 210.523438 25.386719 210.738281 25.539062 210.945312 C 25.679688 211.160156 25.820312 211.375 25.972656 211.582031 C 26.113281 211.796875 26.253906 212.011719 26.40625 212.21875 C 26.546875 212.433594 26.6875 212.648438 26.839844 212.855469 C 26.980469 213.070312 27.121094 213.285156 27.269531 213.492188 C 27.414062 213.707031 27.554688 213.921875 27.703125 214.128906 C 27.84375 214.34375 27.984375 214.558594 28.136719 214.765625 C 28.277344 214.980469 28.417969 215.195312 28.570312 215.402344 C 28.710938 215.617188 28.851562 215.832031 29.003906 216.039062 C 29.144531 216.253906 29.285156 216.46875 29.433594 216.675781 C 29.578125 216.890625 29.71875 217.105469 29.867188 217.3125 C 30.011719 217.527344 30.148438 217.742188 30.300781 217.949219 C 30.441406 218.164062 30.582031 218.378906 30.734375 218.585938 C 30.875 218.800781 31.015625 219.015625 31.167969 219.222656 C 31.308594 219.4375 31.449219 219.652344 31.601562 219.859375 C 31.742188 220.074219 31.882812 220.289062 32.035156 220.496094 C 32.175781 220.710938 32.316406 220.925781 32.464844 221.132812 C 32.609375 221.347656 32.75 221.5625 32.898438 221.769531 C 33.039062 221.984375 33.179688 222.199219 33.332031 222.40625 C 33.472656 222.621094 33.613281 222.835938 33.765625 223.042969 C 33.90625 223.257812 34.046875 223.472656 34.199219 223.679688 C 34.339844 223.894531 34.480469 224.109375 34.628906 224.316406 C 34.773438 224.53125 34.914062 224.75 35.0625 224.957031 C 35.207031 225.167969 35.34375 225.386719 35.496094 225.589844 C 35.636719 225.808594 35.777344 226.023438 35.929688 226.226562 C 36.070312 226.441406 36.210938 226.660156 36.363281 226.863281 C 36.503906 227.078125 36.644531 227.292969 36.796875 227.5 C 36.9375 227.714844 37.078125 227.933594 37.230469 228.136719 C 37.371094 228.351562 37.511719 228.566406 37.660156 228.773438 C 39.851562 232.109375 43.339844 234.476562 47.613281 235.238281 C 49.484375 235.570312 51.304688 235.742188 53.023438 235.746094 C 61.871094 235.757812 70.71875 235.761719 79.570312 235.761719 C 85.570312 235.761719 91.570312 235.757812 97.570312 235.757812 L 100.878906 235.757812 C 101.089844 235.757812 101.292969 235.757812 101.5 235.761719 C 101.777344 235.765625 102.058594 235.769531 102.339844 235.769531 C 103.113281 235.769531 104.148438 235.75 105.320312 235.597656 C 113.554688 234.535156 120.328125 230.539062 124.949219 224.039062 C 125.074219 224.222656 125.191406 224.410156 125.320312 224.585938 C 125.464844 224.800781 125.605469 225.015625 125.753906 225.222656 C 125.894531 225.4375 126.035156 225.652344 126.1875 225.859375 C 126.328125 226.074219 126.46875 226.289062 126.621094 226.496094 C 126.761719 226.710938 126.902344 226.925781 127.054688 227.132812 C 127.195312 227.347656 127.335938 227.5625 127.484375 227.769531 C 127.628906 227.984375 127.769531 228.199219 127.917969 228.40625 C 130.527344 232.375 134.761719 234.726562 139.652344 234.726562 C 140.074219 234.726562 140.507812 234.707031 140.933594 234.671875 C 141.710938 234.609375 142.613281 234.597656 143.46875 234.597656 C 149.53125 234.597656 155.589844 234.597656 161.648438 234.59375 C 171.25 234.59375 180.855469 234.59375 190.457031 234.585938 C 190.921875 234.585938 191.386719 234.574219 191.847656 234.5625 C 192.5 235.691406 193.152344 236.824219 193.804688 237.953125 C 198.25 245.65625 202.699219 253.359375 207.144531 261.066406 L 207.167969 261.101562 L 207.1875 261.136719 C 207.347656 261.453125 207.617188 261.984375 208.007812 262.589844 C 208.101562 262.734375 208.195312 262.886719 208.285156 263.035156 C 208.332031 263.109375 208.375 263.183594 208.421875 263.257812 C 208.761719 263.804688 209.152344 264.429688 209.617188 265.09375 C 209.621094 265.101562 209.625 265.109375 209.632812 265.117188 C 209.769531 265.324219 209.910156 265.535156 210.066406 265.753906 C 210.203125 265.960938 210.34375 266.171875 210.496094 266.390625 C 210.632812 266.597656 210.777344 266.808594 210.929688 267.027344 C 211.066406 267.234375 211.210938 267.445312 211.363281 267.664062 C 211.5 267.871094 211.644531 268.082031 211.796875 268.300781 C 211.933594 268.507812 212.078125 268.71875 212.230469 268.9375 C 212.367188 269.148438 212.511719 269.359375 212.664062 269.574219 C 212.800781 269.785156 212.941406 269.992188 213.097656 270.210938 C 213.230469 270.417969 213.375 270.628906 213.527344 270.847656 C 213.664062 271.058594 213.808594 271.269531 213.960938 271.484375 C 214.097656 271.691406 214.242188 271.902344 214.394531 272.121094 C 214.53125 272.328125 214.675781 272.539062 214.828125 272.757812 C 214.964844 272.964844 215.109375 273.175781 215.261719 273.394531 C 215.394531 273.601562 215.539062 273.8125 215.691406 274.03125 C 215.828125 274.238281 215.972656 274.453125 216.125 274.667969 C 216.261719 274.875 216.40625 275.085938 216.558594 275.304688 C 216.695312 275.511719 216.839844 275.722656 216.992188 275.941406 C 217.128906 276.148438 217.273438 276.359375 217.425781 276.578125 C 217.5625 276.785156 217.707031 276.996094 217.859375 277.214844 C 217.992188 277.421875 218.136719 277.632812 218.289062 277.851562 C 218.425781 278.058594 218.570312 278.269531 218.722656 278.488281 C 218.859375 278.695312 219.003906 278.90625 219.15625 279.125 C 219.292969 279.332031 219.4375 279.542969 219.589844 279.761719 C 219.726562 279.96875 219.871094 280.179688 220.023438 280.398438 C 220.160156 280.605469 220.304688 280.816406 220.457031 281.035156 C 220.59375 281.242188 220.738281 281.453125 220.890625 281.671875 C 221.027344 281.878906 221.167969 282.089844 221.320312 282.308594 C 221.457031 282.515625 221.601562 282.726562 221.753906 282.945312 C 221.890625 283.152344 222.035156 283.363281 222.1875 283.582031 C 222.324219 283.789062 222.46875 284 222.621094 284.21875 C 222.757812 284.425781 222.902344 284.636719 223.054688 284.855469 C 223.191406 285.0625 223.335938 285.273438 223.488281 285.492188 C 223.621094 285.699219 223.765625 285.910156 223.921875 286.128906 C 224.054688 286.335938 224.199219 286.546875 224.351562 286.765625 C 224.488281 286.972656 224.632812 287.183594 224.785156 287.402344 C 224.921875 287.609375 225.066406 287.820312 225.21875 288.039062 C 225.355469 288.246094 225.5 288.457031 225.652344 288.675781 C 225.789062 288.882812 225.933594 289.09375 226.085938 289.3125 C 226.222656 289.519531 226.367188 289.730469 226.519531 289.949219 C 226.652344 290.15625 226.796875 290.367188 226.949219 290.585938 C 227.085938 290.792969 227.230469 291.003906 227.382812 291.222656 C 227.519531 291.429688 227.664062 291.640625 227.816406 291.859375 C 227.953125 292.066406 228.097656 292.277344 228.25 292.496094 C 228.386719 292.703125 228.53125 292.914062 228.683594 293.132812 C 228.816406 293.339844 228.960938 293.550781 229.113281 293.769531 C 229.25 293.976562 229.394531 294.1875 229.546875 294.40625 C 229.683594 294.613281 229.828125 294.824219 229.980469 295.042969 C 230.117188 295.25 230.261719 295.460938 230.414062 295.679688 C 230.550781 295.886719 230.695312 296.097656 230.847656 296.316406 C 230.984375 296.523438 231.128906 296.734375 231.277344 296.953125 C 231.414062 297.160156 231.558594 297.371094 231.710938 297.589844 C 231.847656 297.796875 231.992188 298.007812 232.144531 298.226562 C 232.28125 298.433594 232.425781 298.644531 232.578125 298.863281 C 232.714844 299.070312 232.859375 299.28125 233.011719 299.5 C 233.148438 299.707031 233.292969 299.917969 233.445312 300.136719 C 233.582031 300.34375 233.726562 300.554688 233.878906 300.773438 C 234.011719 300.980469 234.15625 301.191406 234.308594 301.410156 C 234.753906 302.085938 235.269531 302.816406 235.914062 303.570312 C 238.792969 306.933594 242.785156 308.785156 247.15625 308.785156 C 248.417969 308.785156 249.707031 308.628906 250.992188 308.320312 C 255.960938 307.132812 260.113281 304.039062 262.992188 299.375 C 264.238281 297.359375 265.375 295.339844 266.476562 293.386719 C 267.003906 292.445312 267.535156 291.503906 268.074219 290.570312 C 275.039062 278.503906 282.007812 266.4375 288.972656 254.375 L 299.027344 236.960938 C 302.195312 231.472656 305.359375 225.980469 308.523438 220.488281 C 315.519531 208.34375 322.753906 195.789062 329.921875 183.480469 C 333.425781 177.460938 336.933594 171.328125 340.324219 165.398438 C 346.980469 153.761719 353.863281 141.730469 360.945312 130.164062 C 362.136719 128.21875 363.042969 126.042969 363.570312 123.871094 C 364.726562 119.109375 363.828125 114.492188 361.121094 110.707031 Z M 296.515625 141.714844 C 286.144531 159.523438 275.898438 177.386719 265.597656 195.226562 C 255.285156 213.097656 244.960938 230.964844 234.648438 248.839844 C 233.003906 251.691406 231.4375 254.597656 229.707031 257.398438 C 228.296875 259.679688 226.355469 261.402344 223.644531 262.050781 C 223.097656 262.183594 222.558594 262.25 222.042969 262.25 C 221.269531 262.25 220.539062 262.097656 219.863281 261.777344 C 219.851562 261.761719 219.84375 261.746094 219.832031 261.730469 C 219.742188 261.601562 219.65625 261.476562 219.578125 261.355469 C 219.519531 261.269531 219.464844 261.183594 219.402344 261.097656 C 219.3125 260.96875 219.226562 260.84375 219.144531 260.71875 C 219.085938 260.628906 219.027344 260.542969 218.96875 260.457031 C 218.878906 260.328125 218.792969 260.203125 218.710938 260.082031 C 218.65625 259.992188 218.59375 259.90625 218.535156 259.820312 C 218.445312 259.691406 218.359375 259.570312 218.28125 259.445312 C 218.222656 259.359375 218.164062 259.269531 218.105469 259.183594 C 217.792969 258.742188 217.503906 258.277344 217.234375 257.839844 L 217.1875 257.761719 C 217.023438 257.5 216.863281 257.234375 216.695312 256.976562 C 216.589844 256.816406 216.496094 256.632812 216.398438 256.433594 L 216.359375 256.363281 C 216.277344 256.203125 216.195312 256.046875 216.105469 255.890625 C 211.730469 248.308594 207.351562 240.730469 202.972656 233.148438 L 200.800781 229.390625 C 200.132812 228.234375 199.261719 227.242188 198.246094 226.441406 C 196.457031 223.34375 194.675781 220.25 192.882812 217.152344 C 192.507812 216.503906 192.136719 215.84375 191.695312 215.238281 C 189.308594 212.027344 188.761719 208.402344 189.175781 204.523438 C 189.648438 200.097656 191.199219 196.09375 193.460938 192.261719 C 198.511719 183.722656 203.417969 175.089844 208.378906 166.5 C 220.132812 146.144531 231.882812 125.796875 243.625 105.441406 C 245.074219 102.929688 246.519531 100.414062 247.878906 97.847656 C 248.550781 96.59375 249.148438 95.273438 249.527344 93.90625 C 250.273438 91.21875 249.007812 89.171875 246.320312 88.394531 C 245.640625 88.195312 244.960938 88.109375 244.289062 88.109375 C 243.335938 88.109375 242.390625 88.285156 241.453125 88.574219 C 239.539062 89.164062 237.871094 90.203125 236.410156 91.5625 C 234.878906 92.976562 233.558594 94.519531 232.597656 96.429688 C 231.363281 98.890625 229.871094 101.226562 228.5 103.609375 C 219.988281 118.355469 211.476562 133.09375 202.96875 147.835938 C 202.96875 147.835938 202.96875 147.835938 202.964844 147.835938 C 197.234375 157.761719 191.511719 167.683594 185.78125 177.609375 C 185.011719 178.9375 184.347656 180.339844 183.238281 181.441406 C 182.382812 182.300781 181.585938 183.265625 180.59375 183.9375 C 177.410156 186.09375 173.949219 187.59375 170.046875 187.84375 C 168.472656 187.949219 166.910156 188.050781 165.335938 188.050781 C 149.675781 188.066406 134.011719 188.058594 118.355469 188.066406 C 117.246094 188.066406 116.132812 188.082031 115.03125 188.171875 C 114.859375 188.183594 114.699219 188.191406 114.542969 188.191406 C 112.164062 188.191406 110.792969 186.664062 110.148438 184.816406 C 109.640625 183.347656 109.71875 181.855469 110.082031 180.363281 C 110.523438 178.53125 111.382812 176.878906 112.3125 175.261719 C 114.210938 171.972656 116.132812 168.695312 118.027344 165.40625 C 130.636719 143.566406 143.257812 121.726562 155.835938 99.875 C 156.820312 98.175781 157.558594 96.335938 158.371094 94.539062 C 158.59375 94.058594 158.71875 93.519531 158.804688 92.996094 C 159.152344 91.039062 158.246094 89.445312 156.390625 88.71875 C 155.617188 88.410156 154.832031 88.285156 154.042969 88.285156 C 153.320312 88.285156 152.582031 88.394531 151.847656 88.574219 C 149.574219 89.121094 147.585938 90.242188 145.777344 91.691406 C 143.378906 93.625 141.515625 95.964844 139.988281 98.660156 C 135.4375 106.710938 130.769531 114.6875 126.144531 122.6875 C 115.414062 141.269531 104.691406 159.859375 93.957031 178.4375 C 93.40625 179.394531 92.84375 180.355469 92.214844 181.273438 C 89.019531 185.933594 84.519531 188.429688 78.980469 189.144531 C 78.40625 189.21875 77.8125 189.234375 77.230469 189.234375 C 76.742188 189.234375 76.253906 189.21875 75.773438 189.21875 L 75.765625 189.21875 C 68.664062 189.226562 61.566406 189.226562 54.460938 189.226562 C 46.164062 189.226562 37.863281 189.21875 29.5625 189.210938 C 29.5625 189.210938 29.558594 189.210938 29.558594 189.210938 C 29.015625 189.210938 28.46875 189.210938 27.921875 189.210938 C 26.679688 189.203125 25.417969 189.070312 24.191406 188.851562 C 23.640625 188.753906 23.140625 188.574219 22.675781 188.355469 C 22.664062 188.335938 22.652344 188.320312 22.640625 188.304688 C 22.601562 188.246094 22.5625 188.183594 22.523438 188.125 L 22.492188 188.074219 C 22.402344 187.9375 22.308594 187.800781 22.210938 187.667969 C 22.171875 187.613281 22.132812 187.554688 22.097656 187.496094 L 22.054688 187.433594 C 21.964844 187.296875 21.875 187.164062 21.777344 187.03125 C 21.738281 186.976562 21.703125 186.917969 21.664062 186.863281 L 21.621094 186.796875 C 21.523438 186.648438 21.421875 186.5 21.3125 186.355469 C 20.734375 185.570312 20.425781 184.601562 20.386719 183.480469 C 20.339844 182.074219 20.570312 180.804688 21.089844 179.601562 C 21.792969 177.984375 22.597656 176.355469 23.480469 174.765625 C 24.410156 173.097656 25.394531 171.421875 26.347656 169.800781 L 26.378906 169.75 C 26.921875 168.824219 27.464844 167.898438 28.003906 166.96875 C 43.320312 140.445312 58.632812 113.917969 73.949219 87.390625 C 74.570312 86.3125 75.171875 85.222656 75.6875 84.28125 C 76.839844 82.1875 78.441406 80.589844 80.578125 79.40625 C 84.136719 77.429688 87.996094 76.429688 92.050781 76.429688 C 112.589844 76.425781 133.132812 76.421875 153.671875 76.421875 L 179.300781 76.421875 C 179.300781 76.421875 204.914062 76.421875 204.914062 76.421875 C 205.113281 76.4375 205.3125 76.441406 205.511719 76.441406 L 221.734375 76.441406 C 221.734375 76.441406 238.539062 76.441406 238.539062 76.441406 C 263.746094 76.441406 288.953125 76.441406 314.15625 76.4375 C 314.796875 76.4375 315.441406 76.414062 316.082031 76.390625 C 316.699219 76.367188 317.335938 76.339844 317.957031 76.339844 C 318.316406 76.339844 318.640625 76.351562 318.953125 76.367188 C 320.3125 76.4375 321.769531 76.632812 323.410156 76.960938 C 324.457031 77.167969 325.433594 77.667969 326.394531 78.488281 C 326.941406 78.953125 327.402344 79.472656 327.761719 80.03125 C 327.847656 80.167969 327.941406 80.300781 328.035156 80.433594 C 328.089844 80.507812 328.140625 80.585938 328.191406 80.664062 C 328.28125 80.804688 328.375 80.941406 328.472656 81.074219 C 328.523438 81.148438 328.574219 81.222656 328.625 81.300781 C 328.714844 81.4375 328.804688 81.574219 328.902344 81.707031 C 328.957031 81.785156 329.007812 81.863281 329.058594 81.941406 C 329.136719 82.058594 329.214844 82.175781 329.296875 82.289062 C 329.375 83.046875 329.332031 83.839844 329.128906 84.671875 C 328.828125 85.90625 328.308594 87.140625 327.644531 88.21875 C 316.867188 105.820312 306.890625 123.882812 296.515625 141.714844 Z M 353.523438 121.429688 C 353.25 122.554688 352.753906 123.738281 352.125 124.765625 C 345.835938 135.035156 339.75 145.59375 333.828125 155.933594 C 313.835938 162.234375 308.261719 145.027344 307.445312 142 C 310.070312 137.460938 312.675781 132.90625 315.214844 128.464844 C 321.867188 116.832031 328.753906 104.800781 335.835938 93.234375 C 335.980469 93 336.105469 92.75 336.242188 92.507812 C 336.25 92.515625 336.253906 92.523438 336.261719 92.53125 C 336.316406 92.609375 336.367188 92.6875 336.417969 92.761719 C 336.507812 92.902344 336.601562 93.039062 336.695312 93.171875 C 336.75 93.246094 336.800781 93.324219 336.851562 93.402344 C 336.941406 93.539062 337.03125 93.671875 337.125 93.804688 C 337.179688 93.882812 337.234375 93.960938 337.285156 94.039062 C 337.371094 94.175781 337.464844 94.308594 337.558594 94.4375 C 337.613281 94.515625 337.667969 94.597656 337.71875 94.675781 C 337.804688 94.8125 337.898438 94.945312 337.992188 95.078125 C 338.046875 95.15625 338.101562 95.234375 338.152344 95.3125 C 338.238281 95.449219 338.332031 95.582031 338.425781 95.714844 C 338.480469 95.792969 338.535156 95.871094 338.585938 95.949219 C 338.671875 96.085938 338.761719 96.21875 338.859375 96.351562 C 338.914062 96.429688 338.96875 96.511719 339.019531 96.589844 C 339.109375 96.726562 339.195312 96.859375 339.289062 96.988281 C 339.34375 97.0625 339.398438 97.140625 339.449219 97.222656 C 339.539062 97.359375 339.628906 97.492188 339.726562 97.628906 C 339.78125 97.703125 339.832031 97.78125 339.882812 97.859375 C 339.972656 97.996094 340.0625 98.132812 340.160156 98.265625 C 340.210938 98.339844 340.265625 98.414062 340.316406 98.492188 C 340.402344 98.628906 340.496094 98.765625 340.589844 98.898438 C 340.644531 98.976562 340.695312 99.050781 340.746094 99.128906 C 340.835938 99.269531 340.929688 99.40625 341.027344 99.539062 C 341.078125 99.613281 341.128906 99.691406 341.179688 99.765625 C 341.269531 99.902344 341.359375 100.039062 341.457031 100.171875 C 341.511719 100.25 341.5625 100.328125 341.617188 100.40625 C 341.703125 100.542969 341.792969 100.675781 341.886719 100.808594 C 341.945312 100.886719 341.996094 100.964844 342.046875 101.042969 C 342.136719 101.179688 342.226562 101.3125 342.320312 101.445312 C 342.375 101.523438 342.425781 101.597656 342.476562 101.675781 C 342.566406 101.816406 342.660156 101.953125 342.753906 102.085938 C 342.808594 102.160156 342.863281 102.238281 342.914062 102.316406 C 343.003906 102.453125 343.09375 102.589844 343.1875 102.722656 C 343.242188 102.796875 343.296875 102.875 343.347656 102.953125 C 343.433594 103.089844 343.527344 103.226562 343.621094 103.359375 C 343.675781 103.433594 343.726562 103.511719 343.777344 103.589844 C 343.867188 103.726562 343.957031 103.859375 344.054688 103.992188 C 344.109375 104.070312 344.160156 104.148438 344.210938 104.226562 C 344.300781 104.363281 344.390625 104.5 344.484375 104.628906 C 344.539062 104.707031 344.59375 104.785156 344.644531 104.863281 C 344.734375 105 344.824219 105.136719 344.921875 105.269531 C 344.976562 105.34375 345.027344 105.421875 345.078125 105.5 C 345.164062 105.636719 345.257812 105.769531 345.351562 105.902344 C 345.40625 105.980469 345.460938 106.058594 345.511719 106.136719 C 345.601562 106.273438 345.691406 106.410156 345.785156 106.542969 C 345.839844 106.617188 345.894531 106.695312 345.941406 106.773438 C 346.03125 106.910156 346.125 107.042969 346.21875 107.175781 C 346.273438 107.253906 346.328125 107.332031 346.378906 107.410156 C 346.464844 107.546875 346.558594 107.679688 346.652344 107.8125 C 346.707031 107.890625 346.757812 107.96875 346.808594 108.046875 C 346.898438 108.183594 346.988281 108.316406 347.082031 108.449219 C 347.140625 108.523438 347.191406 108.601562 347.242188 108.683594 C 347.332031 108.820312 347.421875 108.953125 347.515625 109.085938 C 347.574219 109.164062 347.625 109.242188 347.675781 109.320312 C 347.765625 109.457031 347.855469 109.589844 347.953125 109.722656 C 348.007812 109.800781 348.058594 109.878906 348.109375 109.957031 C 348.199219 110.09375 348.289062 110.226562 348.382812 110.355469 C 348.4375 110.4375 348.492188 110.515625 348.542969 110.59375 C 348.632812 110.730469 348.722656 110.863281 348.816406 110.996094 C 348.871094 111.070312 348.921875 111.148438 348.972656 111.226562 C 349.0625 111.367188 349.15625 111.5 349.253906 111.636719 C 349.304688 111.710938 349.355469 111.789062 349.40625 111.863281 C 349.496094 112 349.585938 112.136719 349.683594 112.269531 C 349.738281 112.34375 349.789062 112.425781 349.839844 112.503906 C 349.929688 112.636719 350.019531 112.769531 350.113281 112.902344 C 350.167969 112.980469 350.222656 113.058594 350.273438 113.140625 C 350.363281 113.277344 350.453125 113.410156 350.546875 113.542969 C 350.605469 113.617188 350.65625 113.695312 350.707031 113.777344 C 350.796875 113.910156 350.886719 114.046875 350.980469 114.179688 C 351.035156 114.253906 351.089844 114.332031 351.140625 114.414062 C 351.226562 114.546875 351.320312 114.683594 351.414062 114.8125 C 351.46875 114.894531 351.523438 114.972656 351.578125 115.054688 C 351.664062 115.1875 351.753906 115.320312 351.847656 115.449219 C 351.902344 115.527344 351.953125 115.605469 352.003906 115.683594 C 352.09375 115.820312 352.1875 115.957031 352.28125 116.089844 C 352.335938 116.167969 352.386719 116.246094 352.4375 116.324219 C 352.527344 116.460938 352.617188 116.59375 352.714844 116.726562 C 353.695312 118.09375 353.960938 119.632812 353.523438 121.429688 Z M 353.523438 121.429688 "/></g></g></svg>