<svg xmlns="http://www.w3.org/2000/svg" xmlns:xlink="http://www.w3.org/1999/xlink" width="500" zoomAndPan="magnify" viewBox="0 0 375 374.999991" height="500" preserveAspectRatio="xMidYMid meet" version="1.2"><defs><clipPath id="64b596812d"><path d="M 10 66 L 364.714844 66 L 364.714844 308.886719 L 10 308.886719 Z M 10 66 " data-index="0"></path></clipPath></defs><g id="6eb066dbae"><path style="fill-rule: nonzero; fill: rgb(248, 251, 235); fill-opacity: 1; opacity: 1; visibility: visible; stroke: rgb(248, 251, 235);" d="M 329.128906 84.671875 C 328.824219 85.90625 328.308594 87.140625 327.644531 88.21875 C 316.867188 105.820312 306.890625 123.886719 296.511719 141.714844 C 286.144531 159.523438 275.898438 177.386719 265.597656 195.226562 C 255.285156 213.097656 244.960938 230.964844 234.648438 248.839844 C 233.003906 251.691406 231.4375 254.597656 229.707031 257.398438 C 228.296875 259.679688 226.355469 261.402344 223.644531 262.050781 C 223.097656 262.183594 222.558594 262.25 222.042969 262.25 C 220.527344 262.25 219.183594 261.667969 218.089844 260.390625 C 217.316406 259.480469 216.730469 258.394531 216.074219 257.375 C 215.859375 257.042969 215.703125 256.683594 215.503906 256.34375 C 207.972656 243.277344 200.429688 230.21875 192.882812 217.152344 C 192.503906 216.503906 192.136719 215.847656 191.691406 215.242188 C 189.308594 212.027344 188.761719 208.402344 189.175781 204.523438 C 189.648438 200.097656 191.199219 196.097656 193.457031 192.261719 C 198.511719 183.726562 203.414062 175.089844 208.378906 166.5 C 212.179688 159.914062 215.984375 153.316406 219.789062 146.730469 C 227.734375 132.96875 235.683594 119.210938 243.625 105.441406 C 245.070312 102.929688 246.519531 100.414062 247.878906 97.851562 C 248.550781 96.59375 249.148438 95.273438 249.523438 93.90625 C 250.269531 91.21875 249.007812 89.171875 246.320312 88.394531 C 245.640625 88.195312 244.960938 88.109375 244.289062 88.109375 C 243.335938 88.109375 242.390625 88.285156 241.453125 88.574219 C 239.539062 89.164062 237.871094 90.207031 236.40625 91.566406 C 234.878906 92.976562 233.554688 94.519531 232.597656 96.433594 C 231.363281 98.890625 229.871094 101.226562 228.496094 103.609375 C 219.988281 118.351562 211.472656 133.09375 202.964844 147.835938 C 197.234375 157.765625 191.507812 167.683594 185.777344 177.609375 C 185.007812 178.9375 184.34375 180.34375 183.238281 181.441406 C 182.378906 182.300781 181.582031 183.265625 180.59375 183.9375 C 177.410156 186.097656 173.945312 187.59375 170.046875 187.847656 C 168.472656 187.949219 166.90625 188.054688 165.332031 188.054688 C 149.675781 188.066406 134.011719 188.0625 118.351562 188.066406 C 117.246094 188.066406 116.128906 188.082031 115.027344 188.171875 C 114.859375 188.1875 114.695312 188.195312 114.539062 188.195312 C 112.164062 188.195312 110.789062 186.664062 110.144531 184.816406 C 109.636719 183.347656 109.71875 181.855469 110.078125 180.363281 C 110.523438 178.53125 111.378906 176.878906 112.308594 175.261719 C 114.207031 171.972656 116.128906 168.695312 118.027344 165.410156 C 120.425781 161.25 122.828125 157.097656 125.222656 152.941406 C 135.433594 135.257812 145.648438 117.570312 155.835938 99.875 C 156.816406 98.175781 157.554688 96.335938 158.367188 94.542969 C 158.589844 94.0625 158.714844 93.523438 158.804688 92.996094 C 159.152344 91.039062 158.242188 89.445312 156.390625 88.722656 C 155.613281 88.410156 154.832031 88.285156 154.039062 88.285156 C 153.316406 88.285156 152.578125 88.394531 151.847656 88.574219 C 149.570312 89.121094 147.585938 90.242188 145.777344 91.691406 C 143.375 93.625 141.515625 95.964844 139.984375 98.664062 C 135.433594 106.714844 130.769531 114.691406 126.144531 122.6875 C 120.101562 133.15625 114.0625 143.621094 108.019531 154.085938 C 103.328125 162.203125 98.648438 170.320312 93.957031 178.4375 C 93.402344 179.398438 92.839844 180.355469 92.214844 181.273438 C 89.015625 185.933594 84.519531 188.429688 78.976562 189.144531 C 78.402344 189.21875 77.8125 189.234375 77.226562 189.234375 C 76.742188 189.234375 76.253906 189.21875 75.773438 189.21875 L 75.765625 189.21875 C 68.660156 189.226562 61.5625 189.226562 54.457031 189.226562 C 46.164062 189.226562 37.859375 189.21875 29.558594 189.210938 L 27.921875 189.210938 C 26.679688 189.207031 25.417969 189.074219 24.191406 188.851562 C 21.457031 188.371094 19.738281 186.28125 19.648438 183.503906 C 19.597656 182.046875 19.839844 180.625 20.410156 179.308594 C 21.140625 177.640625 21.953125 176 22.839844 174.410156 C 24.300781 171.78125 25.859375 169.203125 27.359375 166.597656 C 42.675781 140.074219 57.996094 113.546875 73.304688 87.023438 C 73.898438 85.996094 74.464844 84.960938 75.042969 83.929688 C 76.261719 81.695312 77.996094 79.992188 80.21875 78.757812 C 83.898438 76.71875 87.847656 75.691406 92.042969 75.691406 C 112.703125 75.683594 133.359375 75.683594 154.019531 75.683594 L 204.929688 75.683594 L 204.929688 75.707031 L 239.6875 75.707031 C 264.511719 75.707031 289.335938 75.699219 314.15625 75.699219 C 315.421875 75.699219 316.691406 75.605469 317.953125 75.605469 C 318.300781 75.605469 318.648438 75.613281 318.988281 75.625 C 320.515625 75.707031 322.054688 75.9375 323.550781 76.238281 C 324.792969 76.484375 325.902344 77.101562 326.875 77.929688 C 328.972656 79.726562 329.769531 82.007812 329.128906 84.671875 Z M 329.128906 84.671875 " data-index="2"></path><g clip-rule="nonzero" clip-path="url(#64b596812d)"></g></g></svg>